<svg width="66" height="14" viewBox="0 0 66 14" fill="none" xmlns="http://www.w3.org/2000/svg">
<g clip-path="url(#clip0_304_1177)">
<path d="M2.16241 8.76937C2.16241 9.5338 2.33019 10.1207 2.54949 10.4758C2.83703 10.9408 3.26589 11.1378 3.7031 11.1378C4.26702 11.1378 4.78291 10.9979 5.77709 9.62291C6.57354 8.52082 7.51203 6.97386 8.14348 6.00405L9.21285 4.36101C9.9557 3.21994 10.8155 1.95146 11.8013 1.09165C12.6061 0.389873 13.4743 0 14.348 0C15.8149 0 17.2122 0.850063 18.2816 2.44437C19.4519 4.19044 20.02 6.38975 20.02 8.65937C20.02 10.0086 19.754 11 19.3015 11.7832C18.8643 12.5407 18.0122 13.2975 16.5787 13.2975V11.1378C17.8061 11.1378 18.1124 10.01 18.1124 8.71924C18.1124 6.87987 17.6835 4.83861 16.7388 3.38006C16.0684 2.34551 15.1995 1.71335 14.2436 1.71335C13.2097 1.71335 12.3778 2.4931 11.4428 3.88342C10.9457 4.62209 10.4354 5.52228 9.8624 6.53804L9.23165 7.65544C7.96456 9.90209 7.64361 10.4138 7.01006 11.2583C5.89962 12.737 4.95139 13.2975 3.7031 13.2975C2.22228 13.2975 1.28589 12.6563 0.705949 11.6899C0.232532 10.9025 0 9.86937 0 8.69209L2.16241 8.76937Z" fill="white"/>
<path d="M20.02 10.7006C19.0286 12.2288 17.5979 13.2975 15.957 13.2975C15.0067 13.2975 14.0619 13.0162 13.0754 12.2107C11.9963 11.33 10.8462 9.8798 9.41129 7.48973L8.89679 6.63201C7.65477 4.5629 6.94812 3.4984 6.53458 2.99644C6.00268 2.35176 5.63021 2.15961 5.14635 2.15961C3.91894 2.15961 3.61262 3.28745 3.61262 4.57821L1.70502 4.63809C1.70502 3.28885 1.97097 2.29745 2.4235 1.51423C2.86072 0.756758 3.71287 -1.43051e-05 5.14635 -1.43051e-05C6.03749 -1.43051e-05 6.82698 0.19353 7.70002 1.01714C8.37116 1.64929 9.15578 2.77226 9.75939 3.78176L11.5549 6.781C12.4558 8.28619 13.2822 9.40847 13.7605 9.91669C14.275 10.4632 14.9363 11.1232 15.9918 11.1232C16.846 11.1232 17.5715 10.5238 18.1786 9.60688L20.02 10.7006Z" fill="white"/>
<path d="M5.73323 2.17424C4.87899 2.17424 4.15354 2.77367 3.54646 3.69057C2.68804 4.9862 2.16241 6.91608 2.16241 8.76937C2.16241 9.5338 2.33019 10.1207 2.54949 10.4758L0.705949 11.6899C0.232532 10.9025 0 9.86937 0 8.69209C0 6.55127 0.587595 4.31994 1.705 2.59684C2.69639 1.06867 4.12709 0 5.76804 0L5.73323 2.17424Z" fill="white"/>
<path d="M24.2236 0.420502H26.7251L30.9782 8.11493L35.232 0.420502H37.6791V13.0635H35.6386V3.37379L31.9083 10.0838H29.9938L26.2642 3.37379V13.0635H24.2236V0.420502ZM44.0731 5.13449C42.6096 5.13449 41.7283 6.23588 41.5173 7.59974H46.484C46.3817 6.19481 45.5713 5.13449 44.0731 5.13449ZM39.4941 8.3767C39.4941 5.50696 41.3488 3.41835 44.1086 3.41835C46.8231 3.41835 48.4438 5.4805 48.4438 8.52987V9.09031H41.5173C41.7631 10.5739 42.7475 11.5737 44.3348 11.5737C45.6012 11.5737 46.3928 11.1873 47.1433 10.4806L48.2273 11.8083C47.206 12.7475 45.9069 13.2891 44.2624 13.2891C41.275 13.2891 39.4941 11.1107 39.4941 8.3767ZM50.9181 5.3155H49.0398V3.64462H50.9181V0.881388H52.887V3.64462H55.7407V5.3155H52.887V9.5505C52.887 10.9965 53.3493 11.5103 54.4855 11.5103C55.0041 11.5103 55.3014 11.4658 55.7407 11.3927V13.0454C55.1935 13.2 54.6714 13.271 54.106 13.271C51.9805 13.271 50.9181 12.1097 50.9181 9.78512V5.3155ZM64.0311 6.94044C63.6357 5.94208 62.7536 5.20689 61.4572 5.20689C59.7724 5.20689 58.694 6.40227 58.694 8.34955C58.694 10.2481 59.6868 11.5013 61.3765 11.5013C62.7048 11.5013 63.6531 10.7285 64.0311 9.76702V6.94044ZM66 13.0635H64.0673V11.7449C63.5271 12.5212 62.544 13.2891 60.9518 13.2891C58.3912 13.2891 56.6799 11.1455 56.6799 8.34955C56.6799 5.52715 58.4322 3.41835 61.0604 3.41835C62.3595 3.41835 63.3788 3.93772 64.0673 4.85462V3.64462H66V13.0635Z" fill="white"/>
</g>
<defs>
<clipPath id="clip0_304_1177">
<rect width="66" height="13.2975" fill="white"/>
</clipPath>
</defs>
</svg>
